<!DOCTYPE svg PUBLIC "-//W3C//DTD SVG 1.1//EN" "http://www.w3.org/Graphics/SVG/1.1/DTD/svg11.dtd">

<!-- Uploaded to: SVG Repo, www.svgrepo.com, Transformed by: SVG Repo Mixer Tools -->
<svg width="245px" height="245px" viewBox="-2.4 -2.4 28.80 28.80" fill="none" xmlns="http://www.w3.org/2000/svg" stroke="#000000" stroke-width="0.288" transform="rotate(0)matrix(-1, 0, 0, 1, 0, 0)">

<g id="SVGRepo_bgCarrier" stroke-width="0"/>

<g id="SVGRepo_tracerCarrier" stroke-linecap="round" stroke-linejoin="round" stroke="#0d0d0d" stroke-width="0.192"> <path d="M18.5 12.6499V16.3499C18.5 19.4699 15.59 21.9999 12 21.9999C8.41 21.9999 5.5 19.4699 5.5 16.3499V12.6499C5.5 15.7699 8.41 17.9999 12 17.9999C15.59 17.9999 18.5 15.7699 18.5 12.6499Z" fill="#ffe0e0"/> <path opacity="0.4" d="M18.5 7.6499V12.6499C18.5 15.7699 15.59 17.9999 12 17.9999C8.41 17.9999 5.5 15.7699 5.5 12.6499V7.6499C5.5 8.5599 5.75 9.3999 6.19 10.1199C7.26 11.8799 9.46 12.9999 12 12.9999C14.54 12.9999 16.74 11.8799 17.81 10.1199C18.25 9.3999 18.5 8.5599 18.5 7.6499Z" fill="#ffe0e0"/> <path d="M18.5 7.65C18.5 8.56 18.25 9.4 17.81 10.12C16.74 11.88 14.54 13 12 13C9.46 13 7.26 11.88 6.19 10.12C5.75 9.4 5.5 8.56 5.5 7.65C5.5 4.53 8.41 2 12 2C13.8 2 15.42 2.63 16.6 3.65C17.77 4.68 18.5 6.09 18.5 7.65Z" fill="#ffe0e0"/> </g>

<g id="SVGRepo_iconCarrier"> <path d="M18.5 12.6499V16.3499C18.5 19.4699 15.59 21.9999 12 21.9999C8.41 21.9999 5.5 19.4699 5.5 16.3499V12.6499C5.5 15.7699 8.41 17.9999 12 17.9999C15.59 17.9999 18.5 15.7699 18.5 12.6499Z" fill="#ffe0e0"/> <path opacity="0.4" d="M18.5 7.6499V12.6499C18.5 15.7699 15.59 17.9999 12 17.9999C8.41 17.9999 5.5 15.7699 5.5 12.6499V7.6499C5.5 8.5599 5.75 9.3999 6.19 10.1199C7.26 11.8799 9.46 12.9999 12 12.9999C14.54 12.9999 16.74 11.8799 17.81 10.1199C18.25 9.3999 18.5 8.5599 18.5 7.6499Z" fill="#ffe0e0"/> <path d="M18.5 7.65C18.5 8.56 18.25 9.4 17.81 10.12C16.74 11.88 14.54 13 12 13C9.46 13 7.26 11.88 6.19 10.12C5.75 9.4 5.5 8.56 5.5 7.65C5.5 4.53 8.41 2 12 2C13.8 2 15.42 2.63 16.6 3.65C17.77 4.68 18.5 6.09 18.5 7.65Z" fill="#ffe0e0"/> </g>

</svg>
